<svg width="267" height="322" fill="none" xmlns="http://www.w3.org/2000/svg"><circle cx="129" cy="112.429" r="43" fill="url(#paint0_radial)"/><ellipse cx="82" cy="227.429" rx="82" ry="94" fill="url(#paint1_radial)"/><path d="M152.748 96.0149c17.461-16.4141-16.395-25.174-11.783-23.1602s24.66.8705 21.519 11.365c-3.141 10.4946-18.478 2.7665-7.621 2.427" stroke="#000"/><path d="M142.023 77.2156L84.2849 115.808 56.8685 82.6748C19.6576 45.4879 106.887 63.4542 68.3187 53.2573 29.7504 43.0605 91.0417 8.2887 100.832 29.8582c9.52-25.6576 43.472-14.3505 32.092 11.7119l9.099 35.6455z" fill="url(#paint2_linear)" stroke="url(#paint3_linear)" stroke-width="5"/><ellipse cx="164.5" cy="108.429" rx="3.5" ry="4" fill="#000"/><path d="M109.329 271.521c-.463-2.624 15.953-21.202 17.423-8.421 1.47 12.781-17.226-15.535-23.828 5.372C96.3233 289.379 92.0457 250 119.493 250c27.447 0-6.776 43.51-13.551 25.732" stroke="#717171" stroke-width="3"/><path d="M235.109 149.025c2.201-2.24 2.783-5.611 1.461-8.459-2.137-4.603-8.119-5.823-11.888-2.425l-26.548 23.937-26.516 23.909c-4.137 3.73-4.289 10.169-.334 14.091 3.816 3.783 9.981 3.743 13.747-.09l50.078-50.963z" fill="url(#paint4_linear)"/><path d="M238.281 112.815c1.853-2.338 5.328-2.544 7.444-.44l15.873 15.78c2.186 2.173 1.904 5.787-.593 7.595l-20.773 15.043c-1.994 1.444-4.743 1.222-6.479-.524l-10.863-10.927c-1.786-1.797-1.946-4.645-.373-6.631l15.764-19.896z" fill="#DC5B72"/><path stroke="#000" d="M232.678 136.233l10.439-11.534M235.172 138.658l11.521-10.454M237.862 141.24l12.192-9.662"/><path d="M172.676 200.672c12.494-1.249 21.487-13.606 22.622-2.261 1.134 11.344-8.075 21.553-20.568 22.802-12.494 1.249-32.815-26.754-33.949-38.098-1.134-11.345 19.401 18.806 31.895 17.557z" fill="#E4C9A1"/><ellipse cx="97.5" cy="40.5" rx="7.6" ry="5.5" fill="#646464"/><path d="M96.4761 37.4524l-.3428 2.5752-.5054-1.8809-1.3491.1538.1802 4.3902 1.0898.5581-3.5112.334 1.2788-.9273.2241-4.311-1.393-.0528-.5406 1.5997-.1714-2.3643 5.0406-.0747zm7.3779.0527l-1.098.8218.171 4.2759.884.4043-2.677.5581 1.09-.9624-.721-3.4849-.98 3.8892-2.1221-3.5376-.5757 3.186.8437.7119-2.2324.1143.8833-.7998.2725-4.5879-.9273-.5889 2.1665-.1054 1.4595 4.122 1.116-4.0781 2.447.0615z" fill="#fff"/><defs><linearGradient id="paint2_linear" x1="80.4259" y1="23.0878" x2="114.574" y2="102.838" gradientUnits="userSpaceOnUse"><stop offset=".5938" stop-color="#fff"/><stop offset="1" stop-color="#FFEFD7"/></linearGradient><linearGradient id="paint3_linear" x1="80.4259" y1="23.0878" x2="119.5" y2="100.5" gradientUnits="userSpaceOnUse"><stop offset=".5729" stop-color="#E4C9A1"/><stop offset="1" stop-color="#FFF4E3"/></linearGradient><linearGradient id="paint4_linear" x1="235.72" y1="134.724" x2="171.101" y2="199.896" gradientUnits="userSpaceOnUse"><stop stop-color="#7F30FF"/><stop offset=".8542" stop-color="#E8DAFF"/></linearGradient><radialGradient id="paint0_radial" cx="0" cy="0" r="1" gradientUnits="userSpaceOnUse" gradientTransform="matrix(-10.99996 10.50004 -26.82875 -28.1061 103.5 130.5)"><stop offset=".3438" stop-color="#FFE7C5"/><stop offset="1" stop-color="#EFD3A9"/></radialGradient><radialGradient id="paint1_radial" cx="0" cy="0" r="1" gradientUnits="userSpaceOnUse" gradientTransform="matrix(-79.00026 -73.99959 64.5529 -68.9152 113 265.929)"><stop offset=".1198" stop-color="#fff"/><stop offset=".4219" stop-color="#498F12"/><stop offset=".422" stop-color="#A0C72F"/></radialGradient></defs></svg>